<svg xmlns="http://www.w3.org/2000/svg" viewBox="0 0 1765 1765" width="1765" height="1765">
  <path fill="#1A2736" d="M882.5,0L882.5,0A882.5,882.5 0,0 1,1765 882.5L1765,882.5A882.5,882.5 0,0 1,882.5 1765L882.5,1765A882.5,882.5 0,0 1,0 882.5L0,882.5A882.5,882.5 0,0 1,882.5 0z"/>
  <path fill="#E8A0BF" d="M1362.6,1115.7C1358.3,1115.7 1355.6,1110.9 1357.8,1107.2L1391.6,1050.9C1394.5,1046.1 1401.9,1048.2 1401.9,1053.8V1110.1C1401.9,1113.2 1399.4,1115.7 1396.4,1115.7H1362.6Z"/>
  <path fill="#E8A0BF" d="M1420.1,1115.7C1416.6,1115.7 1414.5,1111.8 1416.4,1108.8L1483.6,1005.3C1486,1001.6 1491.8,1003.3 1491.8,1007.8V1111.2C1491.8,1113.7 1489.8,1115.7 1487.3,1115.7H1420.1Z"/>
  <path fill="#E8A0BF" d="M1509.6,1115.7C1506.2,1115.7 1504,1111.9 1505.8,1108.9L1604.8,945C1607.1,941.1 1613,942.8 1613,947.3V1111.2C1613,1113.7 1611,1115.7 1608.6,1115.7H1509.6Z"/>
  <path fill="#ffffff" d="M165.3,1115.3V1051.6H172.4V1115.3H165.3ZM168.8,1086.9V1079.9H201V1086.9H168.8ZM168.8,1058.5V1051.6H205.3V1058.5H168.8ZM263.8,1116.2C259.3,1116.2 255.1,1115.4 251.3,1113.9C247.5,1112.2 244.2,1109.9 241.4,1107C238.6,1104.1 236.4,1100.7 234.8,1096.8C233.3,1092.7 232.5,1088.4 232.5,1083.6C232.5,1078.9 233.3,1074.6 234.8,1070.6C236.4,1066.6 238.6,1063.2 241.4,1060.3C244.2,1057.3 247.5,1055 251.3,1053.4C255.1,1051.8 259.3,1051 263.8,1051C268.3,1051 272.5,1051.8 276.2,1053.4C280,1055 283.4,1057.3 286.1,1060.3C289,1063.2 291.2,1066.6 292.7,1070.6C294.3,1074.6 295.1,1078.9 295.1,1083.6C295.1,1088.3 294.3,1092.7 292.7,1096.7C291.2,1100.6 289,1104.1 286.1,1107C283.4,1109.9 280,1112.2 276.2,1113.9C272.5,1115.4 268.3,1116.2 263.8,1116.2ZM263.8,1109.2C267.2,1109.2 270.4,1108.6 273.3,1107.4C276.3,1106.1 278.8,1104.3 281,1102C283.1,1099.7 284.7,1097 285.9,1093.9C287.1,1090.8 287.7,1087.3 287.7,1083.6C287.7,1079.9 287.1,1076.4 285.9,1073.4C284.7,1070.2 283.1,1067.5 281,1065.2C278.8,1062.9 276.3,1061.1 273.3,1059.8C270.4,1058.5 267.2,1057.9 263.8,1057.9C260.3,1057.9 257.1,1058.5 254.1,1059.8C251.2,1061.1 248.7,1062.9 246.6,1065.2C244.4,1067.5 242.8,1070.2 241.6,1073.4C240.5,1076.4 239.9,1079.9 239.9,1083.6C239.9,1087.3 240.5,1090.8 241.6,1093.9C242.8,1097 244.4,1099.7 246.6,1102C248.7,1104.3 251.2,1106.1 254.1,1107.4C257.1,1108.6 260.3,1109.2 263.8,1109.2ZM353.4,1116.2C349,1116.2 344.8,1115.4 341,1113.9C337.2,1112.2 333.9,1109.9 331.1,1107C328.3,1104.1 326.1,1100.7 324.5,1096.8C323,1092.7 322.2,1088.4 322.2,1083.6C322.2,1078.9 323,1074.6 324.5,1070.6C326.1,1066.6 328.3,1063.2 331.1,1060.3C333.9,1057.3 337.2,1055 341,1053.4C344.8,1051.8 349,1051 353.4,1051C358,1051 362.2,1051.8 365.9,1053.4C369.7,1055 373,1057.3 375.8,1060.3C378.7,1063.2 380.9,1066.6 382.4,1070.6C384,1074.6 384.8,1078.9 384.8,1083.6C384.8,1088.3 384,1092.7 382.4,1096.7C380.9,1100.6 378.7,1104.1 375.8,1107C373,1109.9 369.7,1112.2 365.9,1113.9C362.2,1115.4 358,1116.2 353.4,1116.2ZM353.4,1109.2C356.9,1109.2 360.1,1108.6 363,1107.4C366,1106.1 368.5,1104.3 370.6,1102C372.8,1099.7 374.4,1097 375.6,1093.9C376.8,1090.8 377.4,1087.3 377.4,1083.6C377.4,1079.9 376.8,1076.4 375.6,1073.4C374.4,1070.2 372.8,1067.5 370.6,1065.2C368.5,1062.9 366,1061.1 363,1059.8C360.1,1058.5 356.9,1057.9 353.4,1057.9C350,1057.9 346.8,1058.5 343.8,1059.8C340.9,1061.1 338.4,1062.9 336.2,1065.2C334.1,1067.5 332.5,1070.2 331.3,1073.4C330.2,1076.4 329.6,1079.9 329.6,1083.6C329.6,1087.3 330.2,1090.8 331.3,1093.9C332.5,1097 334.1,1099.7 336.2,1102C338.4,1104.3 340.9,1106.1 343.8,1107.4C346.8,1108.6 350,1109.2 353.4,1109.2ZM428.4,1115.3V1058.5H410.2V1051.6H454.4V1058.5H435.5V1115.3H428.4ZM484.7,1115.3V1051.6H510.5C514.2,1051.6 517.4,1052.3 520.1,1053.6C522.8,1054.9 524.9,1056.7 526.3,1059.2C527.8,1061.5 528.5,1064.3 528.5,1067.6C528.5,1071.1 527.5,1074.2 525.5,1076.7C523.5,1079.2 520.8,1080.9 517.3,1081.9L517.2,1080.2C520.1,1080.7 522.7,1081.8 524.9,1083.4C527.1,1084.9 528.8,1086.8 530,1089C531.3,1091.3 531.9,1093.8 531.9,1096.6C531.9,1099.4 531.4,1102 530.4,1104.3C529.5,1106.6 528.1,1108.6 526.3,1110.2C524.5,1111.9 522.3,1113.1 519.8,1114C517.3,1114.9 514.5,1115.3 511.4,1115.3H484.7ZM491.8,1108.4H510.9C513.6,1108.4 516,1107.9 518,1107C520,1106.1 521.6,1104.7 522.7,1102.9C523.9,1101.2 524.4,1099.2 524.4,1096.8C524.4,1094.7 523.8,1092.7 522.6,1091.1C521.5,1089.5 519.8,1088.2 517.7,1087.3C515.6,1086.4 513.2,1085.9 510.4,1085.9H491.8V1108.4ZM491.8,1079H510C512.2,1079 514.1,1078.6 515.8,1077.7C517.5,1076.8 518.8,1075.6 519.8,1074.1C520.8,1072.5 521.3,1070.8 521.3,1068.8C521.3,1065.7 520.2,1063.2 518.1,1061.3C516,1059.5 513.1,1058.5 509.3,1058.5H491.8V1079ZM556.9,1115.3L581.2,1051.6H589.3L613.6,1115.3H605.8L590.3,1074C589.8,1072.8 589.3,1071.5 588.8,1070C588.3,1068.4 587.8,1066.8 587.2,1065.2C586.6,1063.5 586.1,1061.8 585.5,1060.3C585,1058.7 584.6,1057.3 584.2,1056.1H586C585.5,1057.6 585,1059.1 584.4,1060.7C583.9,1062.2 583.4,1063.8 582.9,1065.3C582.3,1066.9 581.8,1068.4 581.2,1069.9C580.7,1071.4 580.2,1072.9 579.6,1074.4L564.1,1115.3H556.9ZM567.2,1097.8L569.9,1090.8H600L602.9,1097.8H567.2ZM643.4,1115.3V1051.6H650.5V1108.4H681.1V1115.3H643.4ZM713.2,1115.3V1051.6H720.3V1108.4H750.9V1115.3H713.2ZM819.6,1115.3L844,1051.6H852.1L876.3,1115.3H868.6L853,1074C852.6,1072.8 852.1,1071.5 851.6,1070C851.1,1068.4 850.5,1066.8 849.9,1065.2C849.4,1063.5 848.8,1061.8 848.3,1060.3C847.8,1058.7 847.4,1057.3 846.9,1056.1H848.8C848.3,1057.6 847.8,1059.1 847.2,1060.7C846.7,1062.2 846.2,1063.8 845.7,1065.3C845.1,1066.9 844.6,1068.4 844,1069.9C843.5,1071.4 842.9,1072.9 842.4,1074.4L826.9,1115.3H819.6ZM830,1097.8L832.6,1090.8H862.8L865.7,1097.8H830ZM934.4,1116.2C929.7,1116.2 925.4,1115.4 921.4,1113.8C917.4,1112.1 913.9,1109.9 910.8,1106.9C907.8,1104 905.4,1100.6 903.7,1096.7C902.1,1092.7 901.3,1088.3 901.3,1083.6C901.3,1079 902.1,1074.7 903.7,1070.7C905.4,1066.7 907.7,1063.3 910.7,1060.3C913.6,1057.4 917.1,1055.2 921,1053.6C925,1052 929.3,1051.2 933.9,1051.2C937.1,1051.2 940.2,1051.6 943.3,1052.5C946.5,1053.4 949.3,1054.7 951.9,1056.3C954.4,1058 956.5,1059.8 958.1,1061.9L953.3,1066.7C951.6,1064.9 949.7,1063.4 947.6,1062.2C945.5,1060.9 943.2,1059.9 940.9,1059.2C938.6,1058.4 936.3,1058.1 934,1058.1C930.4,1058.1 927,1058.7 923.9,1060C920.9,1061.3 918.2,1063 915.9,1065.3C913.6,1067.6 911.8,1070.3 910.6,1073.4C909.3,1076.5 908.7,1079.9 908.7,1083.6C908.7,1087.2 909.3,1090.6 910.6,1093.8C911.9,1096.8 913.8,1099.6 916.1,1101.9C918.5,1104.2 921.3,1106 924.5,1107.3C927.6,1108.6 931,1109.2 934.7,1109.2C937.5,1109.2 940.2,1108.8 942.7,1107.9C945.2,1107.1 947.5,1105.9 949.3,1104.4C951.2,1102.8 952.7,1101 953.7,1098.9C954.7,1096.9 955.3,1094.7 955.3,1092.3V1089.1L956.7,1090.9H934.3V1083.9H962.4C962.4,1084.4 962.5,1085 962.5,1085.6C962.6,1086.3 962.6,1086.9 962.6,1087.6C962.7,1088.2 962.7,1088.7 962.7,1089.3C962.7,1093.2 962,1096.9 960.5,1100.2C959.1,1103.5 957,1106.3 954.4,1108.8C951.9,1111.1 948.9,1113 945.5,1114.3C942.1,1115.6 938.4,1116.2 934.4,1116.2ZM993.9,1115.3V1051.6H1032.5V1058.5H1001V1108.4H1032.3V1115.3H993.9ZM997.2,1086V1079.1H1027.4V1086H997.2ZM1066.7,1115.3V1051.6H1073.1L1114.8,1106.8L1113.5,1108.4C1113.3,1107.4 1113.2,1106 1113.1,1104C1113,1102.1 1112.9,1099.9 1112.8,1097.5C1112.7,1095 1112.7,1092.4 1112.6,1089.7C1112.6,1087.1 1112.5,1084.5 1112.4,1081.9C1112.4,1079.4 1112.4,1077.1 1112.4,1075V1051.6H1119.5V1115.3H1112.9L1071.4,1060.9L1072.5,1059C1072.7,1061.4 1072.8,1063.8 1072.9,1066.2C1073.1,1068.5 1073.2,1070.8 1073.3,1073C1073.4,1075.2 1073.5,1077.2 1073.6,1079C1073.6,1080.8 1073.7,1082.4 1073.7,1083.6C1073.7,1084.9 1073.8,1085.8 1073.8,1086.4V1115.3H1066.7ZM1182.9,1116.2C1178.4,1116.2 1174.2,1115.4 1170.3,1113.9C1166.5,1112.2 1163.2,1109.9 1160.4,1107C1157.6,1104.1 1155.5,1100.6 1153.9,1096.6C1152.4,1092.6 1151.6,1088.2 1151.6,1083.5C1151.6,1078.8 1152.4,1074.5 1153.9,1070.6C1155.5,1066.7 1157.7,1063.3 1160.5,1060.3C1163.4,1057.4 1166.7,1055.1 1170.4,1053.5C1174.2,1051.9 1178.3,1051.2 1182.8,1051.2C1185.8,1051.2 1188.7,1051.6 1191.7,1052.6C1194.6,1053.5 1197.2,1054.8 1199.7,1056.4C1202.2,1058.1 1204.2,1059.9 1205.8,1062.1L1200.8,1067.2C1199.3,1065.3 1197.6,1063.8 1195.6,1062.4C1193.6,1061.1 1191.6,1060.1 1189.4,1059.3C1187.2,1058.6 1185,1058.3 1182.8,1058.3C1179.4,1058.3 1176.2,1058.9 1173.3,1060.2C1170.3,1061.4 1167.8,1063.1 1165.7,1065.3C1163.6,1067.6 1161.9,1070.3 1160.7,1073.4C1159.6,1076.4 1159,1079.8 1159,1083.5C1159,1087.2 1159.6,1090.7 1160.7,1093.8C1161.9,1097 1163.6,1099.7 1165.8,1102C1168.1,1104.3 1170.7,1106 1173.6,1107.3C1176.7,1108.5 1180,1109.1 1183.7,1109.1C1185.9,1109.1 1188.1,1108.8 1190.3,1108.2C1192.5,1107.6 1194.5,1106.6 1196.3,1105.5C1198.1,1104.3 1199.7,1103 1200.9,1101.6L1204.6,1107.5C1203.2,1109.2 1201.3,1110.7 1198.9,1112C1196.6,1113.3 1194.1,1114.3 1191.3,1115.1C1188.5,1115.9 1185.7,1116.2 1182.9,1116.2ZM1253.6,1115.3V1083.6L1254.3,1088L1228.5,1051.6H1237.2L1258.3,1081.8L1256.4,1081.6L1275.8,1051.6H1283.9L1259.3,1089L1260.7,1082.8V1115.3H1253.6Z"/>
  <path fill="#ffffff" d="M1232.6,957.9C1228.6,957.9 1225.3,954.6 1225.3,950.6V639.9C1225.3,635.9 1228.6,632.6 1232.6,632.6H1369.3C1389.4,632.6 1407.7,637.3 1424.1,646.6C1440.6,655.6 1453.4,667.8 1462.7,683.3C1472.3,698.8 1477.1,716.4 1477.1,736.3C1477.1,755.8 1472.3,773.6 1462.7,789.7C1453.4,805.5 1440.6,818 1424.1,827.3C1407.7,836.6 1389.4,841.3 1369.3,841.3H1299.9C1295.9,841.3 1292.7,844.5 1292.7,848.5V950.6C1292.7,954.6 1289.4,957.9 1285.4,957.9H1232.6ZM1414,957.9C1411.3,957.9 1408.9,956.5 1407.7,954.2L1332.2,820.1C1329.7,815.7 1332.3,810.2 1337.3,809.4L1393.6,800.2C1396.6,799.8 1399.6,801.2 1401.1,803.8L1484.2,947.3C1487,952.2 1483.5,958.3 1477.9,958.3L1414,957.9ZM1292.7,777.3C1292.7,781.3 1295.9,784.6 1299.9,784.6H1366.1C1374.4,784.6 1381.7,782.7 1387.9,779C1394.4,775 1399.4,769.6 1402.8,762.7C1406.2,755.6 1407.9,747.7 1407.9,739C1407.9,729.8 1405.9,721.7 1401.8,714.9C1397.8,708.1 1391.9,702.8 1384.2,699.1C1376.4,695.1 1367.5,693 1357.2,693H1299.9C1295.9,693 1292.7,696.3 1292.7,700.3V777.3Z"/>
  <path fill="#ffffff" d="M1037.7,962.5C1017.5,962.5 999.1,960 982.4,955.1C966,950.1 951.2,942.9 938.2,933.3C927,924.8 916.8,914.7 907.5,903.1C905.3,900.4 905.5,896.5 907.8,894L941.5,855.6C944.6,852 950.1,852.3 953,856C966.3,873.1 979.5,885.1 992.6,891.9C1007.8,899.3 1024.2,903.1 1041.8,903.1C1051.4,903.1 1060,901.7 1067.4,898.9C1075.1,896.1 1081.2,892.4 1085.5,887.7C1089.8,882.8 1092,876.9 1092,870.1C1092,865.1 1090.9,860.6 1088.8,856.6C1086.6,852.3 1083.5,848.5 1079.5,845.4C1075.4,842 1070.6,839.1 1065.1,836.6C1059.5,833.8 1053.3,831.5 1046.5,829.6C1039.7,827.5 1032.2,825.8 1024.2,824.5C1006.8,820.5 991.7,815.7 978.6,810.1C965.6,804.2 954.8,797.1 946.1,788.8C937.5,780.1 931,770.3 926.6,759.5C922.6,748.6 920.6,736.4 920.6,722.8C920.6,708.8 923.7,696 929.9,684.2C936.1,672.1 944.6,661.8 955.4,653.1C966.6,644.4 979.3,637.8 993.5,633.1C1008.1,628.5 1023.4,626.1 1039.5,626.1C1059.3,626.1 1076.7,628.3 1091.6,632.7C1106.4,637 1119.3,643.5 1130.1,652.2C1139.7,659.4 1147.9,668 1154.8,677.9C1156.7,680.7 1156.2,684.5 1153.8,686.9L1119.8,719.8C1116.6,722.9 1111.5,722.5 1108.7,719.1C1103.6,713.2 1098.2,708.1 1092.5,703.7C1085,697.8 1076.8,693.5 1067.8,690.7C1059.2,687.6 1050.2,686.1 1040.9,686.1C1030.7,686.1 1021.9,687.5 1014.4,690.3C1007,692.7 1001.1,696.6 996.8,701.9C992.7,706.8 990.7,712.7 990.7,719.5C990.7,725.1 992.1,730.1 994.9,734.4C997.7,738.7 1001.7,742.6 1007,746C1012.3,749.1 1018.6,751.9 1026,754.4C1033.5,756.9 1041.7,759 1050.7,760.9C1067.7,764.3 1083,768.8 1096.7,774.4C1110.3,779.9 1121.9,786.7 1131.5,794.8C1141.4,802.5 1149,811.8 1154.3,822.7C1159.5,833.2 1162.2,845.1 1162.2,858.4C1162.2,880.4 1156.9,899.2 1146.4,914.7C1135.8,930.2 1121.3,942.1 1102.7,950.4C1084.1,958.5 1062.4,962.5 1037.7,962.5Z"/>
  <path fill="#ffffff" d="M720.2,962.5C695.1,962.5 672,958.3 650.9,950C630.2,941.3 612.2,929.4 597,914.2C581.9,899 570.1,881.2 561.7,860.8C553.7,840.3 549.7,818.2 549.7,794.3C549.7,770.5 553.8,748.5 562.2,728.4C570.9,707.9 583,690.3 598.4,675.4C614.2,660.2 632.7,648.4 653.7,640.1C674.8,631.7 697.9,627.5 723,627.5C740.3,627.5 756.9,629.9 772.7,634.5C788.5,639.2 802.9,645.5 815.9,653.6C826.8,660.3 836.3,668 844.2,676.6C846.7,679.3 846.5,683.4 844,686.1L810.2,721.6C807.5,724.6 802.8,724.7 799.8,722C793.4,716.4 786.9,711.6 780.1,707.5C771.4,701.9 762.1,697.7 752.2,694.9C742.6,691.8 732.7,690.3 722.5,690.3C707.9,690.3 694.5,692.9 682.1,698.2C670,703.4 659.3,710.7 650,720C640.7,729.3 633.4,740.3 628.2,753C623.2,765.7 620.7,779.5 620.7,794.3C620.7,808.9 623.4,822.7 628.6,835.7C634.2,848.4 641.6,859.5 650.9,869.1C660.5,878.4 671.7,885.9 684.4,891.4C697.1,896.7 710.7,899.3 725.3,899.3C735.8,899.3 745.6,897.8 754.5,894.7C763.8,891.6 771.9,887.3 778.7,881.7C785.8,875.8 791.3,869 795,861.2C799,853.5 801,845.3 801,836.6V835.3C801,832.2 804.9,831 806.7,833.5C808.2,835.6 806.7,838.5 804.2,838.5H724.7C720.6,838.5 717.4,835.2 717.4,831.2V787.7C717.4,783.7 720.6,780.4 724.7,780.4H861.3C865,780.4 868.2,783.3 868.4,787C868.6,788.9 868.7,790.8 868.8,792.9C869.5,797.9 869.8,802.8 869.8,807.8C870.1,812.5 870.2,816.2 870.2,819C870.2,840 866.4,859.4 858.6,877C851.2,894.7 840.7,909.9 827,922.6C813.7,935.3 797.9,945.2 779.6,952.3C761.4,959.1 741.5,962.5 720.2,962.5Z"/>
  <path fill="#ffffff" d="M172.7,957.9C168.7,957.9 165.4,954.6 165.4,950.6V639.9C165.4,635.9 168.7,632.6 172.7,632.6H225C227.5,632.6 229.9,634 231.2,636.1L340.6,814.2C343.6,819.1 340.1,825.4 334.3,825.3L318.7,825.1C313,825.1 309.6,818.8 312.6,814L423.4,636.1C424.8,633.9 427.1,632.6 429.6,632.6H479.2C483.2,632.6 486.4,635.9 486.4,639.9V950.6C486.4,954.6 483.2,957.9 479.2,957.9H425.4C421.4,957.9 418.2,954.6 418.2,950.6V846.4C418.2,818.5 418.8,793.4 420,771.1C421.1,755.7 422.6,740.3 424.6,725.1C425.3,719.5 432.8,718.7 434.8,723.9C435.4,725.5 435.2,727.4 434.3,728.8L342.7,870.9C341.4,873 339.1,874.2 336.6,874.2H313.9C311.4,874.2 309.1,873 307.8,870.9L217.9,729.6C217,728.2 216.8,726.5 217.4,724.9C219.2,719.6 226.8,720.3 227.5,725.9C229.3,739.9 230.6,754.2 231.4,768.8C232.9,790.5 233.7,816.3 233.7,846.4V950.6C233.7,954.6 230.4,957.9 226.4,957.9H172.7Z"/>
  </svg>
