<svg xmlns="http://www.w3.org/2000/svg" viewBox="0 0 1601 563" width="1601" height="563">
  <path fill="#39D164" d="M1325.8,537.8C1321,537.8 1318.1,532.6 1320.6,528.6L1357.7,466.7C1360.8,461.4 1369,463.7 1369,469.8V531.7C1369,535.1 1366.3,537.8 1362.9,537.8H1325.8Z"/>
  <path fill="#39D164" d="M1389,537.8C1385.1,537.8 1382.8,533.5 1384.9,530.3L1458.7,416.6C1461.4,412.5 1467.7,414.4 1467.7,419.3V532.9C1467.7,535.6 1465.5,537.8 1462.8,537.8H1389Z"/>
  <path fill="#39D164" d="M1487.3,537.8C1483.5,537.8 1481.2,533.7 1483.1,530.4L1591.8,350.3C1594.4,346.1 1600.9,347.9 1600.9,352.8V532.9C1600.9,535.6 1598.7,537.8 1596,537.8H1487.3Z"/>
  <path fill="#050505" d="M10.3,537.5V467.5H18.1V537.5H10.3ZM14.2,506.3V498.6H49.6V506.3H14.2ZM14.2,475.1V467.5H54.3V475.1H14.2ZM118.5,538.5C113.6,538.5 109,537.6 104.8,535.9C100.7,534.1 97,531.6 93.9,528.4C90.8,525.2 88.4,521.4 86.7,517.1C85,512.7 84.2,507.9 84.2,502.7C84.2,497.5 85,492.7 86.7,488.4C88.4,484 90.8,480.2 93.9,477C97,473.7 100.7,471.2 104.8,469.5C109,467.7 113.6,466.8 118.5,466.8C123.5,466.8 128.1,467.7 132.2,469.5C136.4,471.2 140,473.7 143.1,477C146.2,480.2 148.6,484 150.3,488.4C152,492.7 152.9,497.5 152.9,502.7C152.9,507.8 152,512.6 150.3,517C148.6,521.3 146.2,525.1 143.1,528.4C140,531.6 136.4,534.1 132.2,535.9C128.1,537.6 123.5,538.5 118.5,538.5ZM118.5,530.8C122.3,530.8 125.8,530.1 129,528.8C132.3,527.4 135.1,525.4 137.4,522.9C139.7,520.3 141.5,517.4 142.8,514C144.1,510.5 144.8,506.7 144.8,502.7C144.8,498.5 144.1,494.8 142.8,491.4C141.5,487.9 139.7,484.9 137.4,482.4C135.1,479.8 132.3,477.9 129,476.5C125.8,475.1 122.3,474.4 118.5,474.4C114.7,474.4 111.2,475.1 107.9,476.5C104.7,477.9 101.9,479.8 99.6,482.4C97.3,484.9 95.5,487.9 94.2,491.4C92.9,494.8 92.3,498.5 92.3,502.7C92.3,506.7 92.9,510.5 94.2,514C95.5,517.4 97.3,520.3 99.6,522.9C101.9,525.4 104.7,527.4 107.9,528.8C111.2,530.1 114.7,530.8 118.5,530.8ZM217,538.5C212.1,538.5 207.5,537.6 203.3,535.9C199.2,534.1 195.6,531.6 192.4,528.4C189.4,525.2 187,521.4 185.2,517.1C183.6,512.7 182.7,507.9 182.7,502.7C182.7,497.5 183.6,492.7 185.2,488.4C187,484 189.4,480.2 192.4,477C195.6,473.7 199.2,471.2 203.3,469.5C207.5,467.7 212.1,466.8 217,466.8C222,466.8 226.6,467.7 230.7,469.5C234.9,471.2 238.6,473.7 241.6,477C244.8,480.2 247.2,484 248.8,488.4C250.6,492.7 251.4,497.5 251.4,502.7C251.4,507.8 250.6,512.6 248.8,517C247.2,521.3 244.8,525.1 241.6,528.4C238.6,531.6 234.9,534.1 230.7,535.9C226.6,537.6 222,538.5 217,538.5ZM217,530.8C220.8,530.8 224.3,530.1 227.5,528.8C230.8,527.4 233.6,525.4 235.9,522.9C238.3,520.3 240.1,517.4 241.3,514C242.7,510.5 243.3,506.7 243.3,502.7C243.3,498.5 242.7,494.8 241.3,491.4C240.1,487.9 238.3,484.9 235.9,482.4C233.6,479.8 230.8,477.9 227.5,476.5C224.3,475.1 220.8,474.4 217,474.4C213.2,474.4 209.7,475.1 206.4,476.5C203.2,477.9 200.5,479.8 198.1,482.4C195.8,484.9 194,487.9 192.7,491.4C191.5,494.8 190.8,498.5 190.8,502.7C190.8,506.7 191.5,510.5 192.7,514C194,517.4 195.8,520.3 198.1,522.9C200.5,525.4 203.2,527.4 206.4,528.8C209.7,530.1 213.2,530.8 217,530.8ZM299.4,537.5V475.1H279.4V467.5H328V475.1H307.2V537.5H299.4ZM361.2,537.5V467.5H389.6C393.7,467.5 397.2,468.2 400.1,469.7C403.1,471.1 405.4,473.1 407,475.8C408.6,478.4 409.4,481.5 409.4,485.1C409.4,488.9 408.3,492.3 406.1,495.1C403.9,497.8 400.9,499.7 397.1,500.8L396.9,498.9C400.2,499.5 403,500.6 405.4,502.4C407.8,504 409.7,506.1 411,508.6C412.4,511 413.1,513.8 413.1,516.9C413.1,520 412.6,522.8 411.5,525.4C410.4,527.9 408.9,530.1 406.9,531.9C405,533.7 402.6,535.1 399.8,536.1C397.1,537 394,537.5 390.6,537.5H361.2ZM369,529.9H390C393,529.9 395.6,529.4 397.8,528.4C400.1,527.3 401.8,525.8 403,523.9C404.3,521.9 404.9,519.7 404.9,517.2C404.9,514.8 404.2,512.7 402.9,510.9C401.6,509.1 399.8,507.7 397.5,506.7C395.2,505.7 392.6,505.2 389.5,505.2H369V529.9ZM369,497.6H389C391.4,497.6 393.5,497.1 395.4,496.2C397.3,495.2 398.7,493.8 399.8,492.2C400.9,490.4 401.4,488.5 401.4,486.4C401.4,483 400.2,480.2 397.9,478.2C395.6,476.1 392.4,475.1 388.3,475.1H369V497.6ZM440.5,537.5L467.3,467.5H476.2L502.8,537.5H494.3L477.2,492.1C476.8,490.8 476.2,489.3 475.6,487.7C475.1,485.9 474.5,484.2 473.8,482.4C473.2,480.5 472.6,478.7 472,477C471.5,475.2 471,473.7 470.5,472.4H472.5C472,474 471.4,475.7 470.8,477.5C470.3,479.1 469.7,480.8 469.1,482.6C468.5,484.2 467.9,485.9 467.3,487.6C466.7,489.2 466.1,490.9 465.5,492.6L448.5,537.5H440.5ZM451.9,518.2L454.8,510.6H487.9L491.1,518.2H451.9ZM535.6,537.5V467.5H543.4V529.9H577V537.5H535.6ZM612.3,537.5V467.5H620.1V529.9H653.7V537.5H612.3ZM729.2,537.5L756,467.5H764.9L791.5,537.5H783L765.9,492.1C765.5,490.8 764.9,489.3 764.3,487.7C763.8,485.9 763.2,484.2 762.5,482.4C761.9,480.5 761.3,478.7 760.7,477C760.2,475.2 759.7,473.7 759.2,472.4H761.2C760.7,474 760.1,475.7 759.5,477.5C759,479.1 758.4,480.8 757.8,482.6C757.2,484.2 756.6,485.9 756,487.6C755.4,489.2 754.8,490.9 754.2,492.6L737.2,537.5H729.2ZM740.6,518.2L743.5,510.6H776.6L779.8,518.2H740.6ZM855.3,538.5C850.2,538.5 845.4,537.6 841,535.8C836.6,534 832.8,531.5 829.4,528.3C826.1,525.1 823.5,521.3 821.6,517C819.8,512.6 818.9,507.8 818.9,502.7C818.9,497.5 819.8,492.8 821.6,488.5C823.5,484.1 826,480.3 829.2,477.1C832.5,473.9 836.3,471.4 840.6,469.7C845,467.9 849.7,467 854.7,467C858.3,467 861.7,467.5 865.1,468.5C868.6,469.5 871.7,470.9 874.5,472.7C877.3,474.5 879.6,476.5 881.3,478.8L876.1,484.1C874.3,482.1 872.2,480.5 869.8,479.1C867.5,477.7 865,476.6 862.4,475.8C859.9,475 857.4,474.6 854.8,474.6C850.9,474.6 847.2,475.3 843.8,476.7C840.5,478.1 837.6,480 835,482.6C832.5,485 830.5,488 829.1,491.5C827.7,494.9 827,498.6 827,502.7C827,506.6 827.7,510.3 829.1,513.8C830.6,517.2 832.6,520.2 835.2,522.8C837.9,525.3 841,527.3 844.4,528.7C847.9,530.1 851.6,530.8 855.6,530.8C858.8,530.8 861.7,530.3 864.4,529.4C867.2,528.4 869.7,527.1 871.7,525.5C873.8,523.7 875.4,521.7 876.5,519.5C877.7,517.2 878.2,514.8 878.2,512.2V508.7L879.8,510.7H855.2V503H886C886.1,503.5 886.2,504.1 886.2,504.9C886.3,505.5 886.3,506.2 886.3,507C886.4,507.6 886.4,508.3 886.4,508.9C886.4,513.2 885.6,517.2 884,520.9C882.4,524.5 880.2,527.6 877.3,530.3C874.5,532.9 871.3,534.9 867.5,536.4C863.8,537.8 859.7,538.5 855.3,538.5ZM920.7,537.5V467.5H963.1V475.1H928.5V529.9H962.9V537.5H920.7ZM924.3,505.3V497.7H957.5V505.3H924.3ZM1000.6,537.5V467.5H1007.7L1053.5,528.1L1052.1,529.9C1051.9,528.8 1051.8,527.2 1051.6,525.1C1051.6,522.9 1051.5,520.5 1051.3,517.9C1051.3,515.1 1051.2,512.3 1051.1,509.4C1051.1,506.4 1051,503.6 1050.9,500.8C1050.9,498 1050.9,495.4 1050.9,493.2V467.5H1058.7V537.5H1051.4L1005.8,477.7L1007,475.6C1007.2,478.2 1007.4,480.9 1007.5,483.5C1007.7,486.1 1007.9,488.6 1007.9,491C1008.1,493.4 1008.2,495.6 1008.2,497.6C1008.3,499.6 1008.3,501.3 1008.3,502.7C1008.4,504.1 1008.4,505.1 1008.4,505.7V537.5H1000.6ZM1128.4,538.5C1123.4,538.5 1118.8,537.6 1114.6,535.9C1110.4,534.1 1106.7,531.6 1103.7,528.4C1100.6,525.1 1098.2,521.3 1096.5,516.9C1094.8,512.5 1094,507.7 1094,502.5C1094,497.3 1094.8,492.6 1096.5,488.4C1098.2,484 1100.6,480.3 1103.8,477.1C1106.9,473.8 1110.5,471.3 1114.7,469.6C1118.8,467.8 1123.3,467 1128.3,467C1131.5,467 1134.8,467.5 1138,468.6C1141.2,469.6 1144.1,471 1146.8,472.8C1149.5,474.6 1151.7,476.6 1153.5,479L1148.1,484.6C1146.4,482.6 1144.5,480.8 1142.3,479.4C1140.1,477.9 1137.9,476.8 1135.5,476C1133.1,475.2 1130.7,474.8 1128.3,474.8C1124.5,474.8 1121,475.5 1117.8,476.9C1114.6,478.2 1111.8,480.1 1109.5,482.6C1107.1,485 1105.3,488 1104,491.4C1102.7,494.8 1102.1,498.5 1102.1,502.5C1102.1,506.6 1102.7,510.4 1104,513.9C1105.3,517.3 1107.2,520.3 1109.6,522.9C1112,525.3 1114.9,527.3 1118.2,528.7C1121.5,530 1125.2,530.7 1129.3,530.7C1131.7,530.7 1134.1,530.3 1136.5,529.7C1138.9,528.9 1141.1,527.9 1143.1,526.7C1145.1,525.4 1146.8,524 1148.2,522.4L1152.2,528.9C1150.6,530.7 1148.6,532.4 1146,533.9C1143.4,535.3 1140.6,536.4 1137.6,537.3C1134.5,538.1 1131.4,538.5 1128.4,538.5ZM1206.1,537.5V502.6L1206.8,507.5L1178.5,467.5H1188L1211.2,500.7L1209.1,500.5L1230.4,467.5H1239.4L1212.3,508.6L1213.8,501.8V537.5H1206.1Z"/>
  <path fill="#050505" d="M1182.9,364.5C1178.5,364.5 1174.9,360.9 1174.9,356.5V15.1C1174.9,10.7 1178.5,7.1 1182.9,7.1H1333.2C1355.3,7.1 1375.4,12.3 1393.4,22.5C1411.4,32.3 1425.6,45.8 1435.8,62.8C1446.3,79.8 1451.6,99.2 1451.6,121C1451.6,142.4 1446.3,162 1435.8,179.7C1425.6,197 1411.4,210.8 1393.4,221C1375.4,231.2 1355.3,236.3 1333.2,236.3H1256.9C1252.5,236.3 1248.9,239.9 1248.9,244.3V356.5C1248.9,360.9 1245.4,364.5 1240.9,364.5H1182.9ZM1382.2,364.5C1379.3,364.5 1376.7,362.9 1375.3,360.4L1292.3,213.1C1289.6,208.3 1292.5,202.2 1298,201.3L1359.9,191.3C1363.2,190.8 1366.4,192.3 1368.1,195.2L1459.4,352.9C1462.5,358.2 1458.6,364.9 1452.4,364.9L1382.2,364.5ZM1248.9,166.1C1248.9,170.5 1252.5,174.1 1256.9,174.1H1329.6C1338.8,174.1 1346.8,172 1353.6,167.9C1360.7,163.5 1366.2,157.6 1369.9,150.1C1373.7,142.2 1375.5,133.6 1375.5,124C1375.5,113.8 1373.3,105 1368.9,97.5C1364.5,90 1358,84.2 1349.5,80.1C1341,75.7 1331.1,73.5 1319.9,73.5H1256.9C1252.5,73.5 1248.9,77.1 1248.9,81.5V166.1Z"/>
  <path fill="#050505" d="M968.8,369.6C946.7,369.6 926.4,366.8 908,361.4C890,356 873.8,348 859.5,337.4C847.2,328.1 835.9,317 825.7,304.3C823.4,301.3 823.6,297.1 826,294.2L863.1,252.1C866.5,248.2 872.6,248.5 875.8,252.6C890.4,271.4 904.9,284.5 919.3,292C935.9,300.1 954,304.2 973.4,304.2C983.9,304.2 993.3,302.7 1001.4,299.6C1010,296.6 1016.6,292.5 1021.3,287.4C1026.1,281.9 1028.5,275.5 1028.5,268C1028.5,262.5 1027.3,257.6 1024.9,253.2C1022.5,248.4 1019.1,244.3 1014.7,240.9C1010.3,237.2 1005,234 998.9,231.2C992.8,228.2 986,225.6 978.5,223.6C971,221.2 962.8,219.3 954,218C934.9,213.5 918.2,208.3 903.9,202.1C889.7,195.7 877.7,187.8 868.2,178.7C858.7,169.1 851.5,158.4 846.8,146.5C842.3,134.6 840.1,121.1 840.1,106.2C840.1,90.9 843.5,76.7 850.3,63.8C857.2,50.5 866.5,39.1 878.4,29.6C890.7,20.1 904.6,12.8 920.3,7.7C936.3,2.6 953.1,0 970.8,0C992.6,0 1011.7,2.4 1028,7.1C1044.3,11.9 1058.4,19.1 1070.3,28.6C1080.9,36.5 1089.9,45.9 1097.5,56.9C1099.6,60 1099.1,64.1 1096.4,66.7L1059,102.9C1055.6,106.3 1049.9,105.8 1046.8,102.2C1041.3,95.7 1035.3,90 1029,85.2C1020.8,78.8 1011.8,74 1002,71C992.4,67.5 982.6,65.8 972.3,65.8C961.1,65.8 951.4,67.4 943.2,70.4C935.1,73.2 928.6,77.4 923.9,83.2C919.4,88.6 917.2,95.1 917.2,102.6C917.2,108.7 918.7,114.2 921.8,118.9C924.9,123.7 929.3,128 935.1,131.7C940.9,135.1 947.8,138.2 956,140.9C964.2,143.6 973.2,146 983.1,148C1001.8,151.8 1018.6,156.7 1033.6,162.8C1048.6,169 1061.3,176.4 1071.9,185.3C1082.8,193.8 1091.1,204 1096.9,215.9C1102.7,227.5 1105.6,240.6 1105.6,255.2C1105.6,279.4 1099.8,300 1088.2,317C1076.7,334 1060.7,347.1 1040.2,356.3C1019.8,365.1 996,369.6 968.8,369.6Z"/>
  <path fill="#050505" d="M620,369.6C592.4,369.6 567,365 543.9,355.8C521.1,346.3 501.4,333.2 484.7,316.5C468,299.8 455.1,280.2 445.9,257.8C437,235.3 432.6,211 432.6,184.8C432.6,158.6 437.2,134.4 446.4,112.3C455.9,89.8 469.2,70.4 486.2,54.1C503.6,37.4 523.8,24.5 547,15.3C570.1,6.1 595.5,1.5 623,1.5C642.1,1.5 660.3,4.1 677.6,9.2C695,14.3 710.8,21.3 725.1,30.1C737.2,37.6 747.5,46 756.2,55.4C758.9,58.4 758.8,62.9 756,65.9L718.9,104.9C715.9,108.1 710.8,108.2 707.4,105.3C700.4,99.2 693.2,93.8 685.8,89.3C676.3,83.2 666.1,78.6 655.2,75.5C644.6,72.1 633.7,70.4 622.5,70.4C606.5,70.4 591.7,73.3 578.1,79.1C564.8,84.9 553.1,92.9 542.9,103.1C532.7,113.3 524.7,125.4 518.9,139.4C513.4,153.3 510.7,168.4 510.7,184.8C510.7,200.8 513.6,215.9 519.4,230.2C525.5,244.2 533.7,256.4 543.9,267C554.4,277.2 566.7,285.3 580.7,291.5C594.6,297.3 609.6,300.1 625.6,300.1C637.1,300.1 647.9,298.4 657.7,295C667.9,291.6 676.8,286.9 684.3,280.7C692.1,274.3 698.1,266.8 702.1,258.3C706.6,249.8 708.8,240.8 708.8,231.2V229.8C708.8,226.4 713.1,225 715.1,227.8C716.7,230.1 715.1,233.3 712.2,233.3H624.9C620.5,233.3 616.9,229.7 616.9,225.3V177.5C616.9,173.1 620.5,169.5 624.9,169.5H775C779.1,169.5 782.6,172.6 782.9,176.8C783,178.8 783.2,180.9 783.3,183.3C784,188.7 784.3,194.1 784.3,199.6C784.7,204.7 784.8,208.8 784.8,211.8C784.8,235 780.6,256.2 772.1,275.6C763.9,295 752.3,311.7 737.4,325.7C722.7,339.6 705.4,350.5 685.3,358.3C665.2,365.8 643.4,369.6 620,369.6Z"/>
  <path fill="#050505" d="M18.5,364.5C14,364.5 10.5,360.9 10.5,356.5V15.1C10.5,10.7 14,7.1 18.5,7.1H75.9C78.7,7.1 81.3,8.6 82.7,11L203,206.6C206.3,212 202.4,218.9 196.1,218.8L178.8,218.6C172.6,218.6 168.8,211.7 172.1,206.4L294,10.9C295.4,8.6 298,7.1 300.7,7.1H355.2C359.6,7.1 363.2,10.7 363.2,15.1V356.5C363.2,360.9 359.6,364.5 355.2,364.5H296.1C291.7,364.5 288.1,360.9 288.1,356.5V242C288.1,211.3 288.8,183.8 290.2,159.3C291.4,142.3 293,125.5 295.2,108.7C296,102.6 304.2,101.6 306.4,107.4C307.1,109.2 306.9,111.2 305.9,112.8L205.3,268.9C203.8,271.2 201.3,272.6 198.5,272.6H173.6C170.9,272.6 168.3,271.2 166.8,268.9L68.2,113.7C67.2,112.2 67,110.3 67.6,108.5C69.6,102.7 77.9,103.4 78.7,109.6C80.6,125 82,140.7 82.9,156.7C84.6,180.5 85.5,208.9 85.5,242V356.5C85.5,360.9 81.9,364.5 77.5,364.5H18.5Z"/>
  </svg>